<?xml version="1.0" encoding="UTF-8" standalone="no"?>
<!-- Created with Inkscape (http://www.inkscape.org/) -->

<svg
   xmlns:dc="http://purl.org/dc/elements/1.1/"
   xmlns:cc="http://creativecommons.org/ns#"
   xmlns:rdf="http://www.w3.org/1999/02/22-rdf-syntax-ns#"
   xmlns:svg="http://www.w3.org/2000/svg"
   xmlns="http://www.w3.org/2000/svg"
   version="1.1"
   width="25"
   height="25"
   viewBox="0 0 25 25"
   id="Layer_1"
   xml:space="preserve"><metadata
   id="metadata17"><rdf:RDF><cc:Work
       rdf:about=""><dc:format>image/svg+xml</dc:format><dc:type
         rdf:resource="http://purl.org/dc/dcmitype/StillImage" /><dc:title></dc:title></cc:Work></rdf:RDF></metadata><defs
   id="defs15" />
<g
   id="g3">
	<g
   id="g5">
		<polygon
   points="11.848,6 11.848,6 11.848,6 "
   id="polygon7"
   style="fill:#01fab8" />
		<path
   d="M 8.7,19.617 C 8.038,19.148 6.771,18.009 6.771,17.339 c 0,-0.786 0.224,-1.173 1.406,-2.097 1.213,-0.946 2.069,-2.277 2.069,-3.826 0,-1.843 -0.82,-3.64 -2.362,-4.232 h 2.323 L 11.848,6 l 0,0 c 0,0 -5.494,0 -7.327,0 C 2.83,6 1.193,6.659 0,7.69 v 7.733 c 0.952,0.793 2.228,1.27 3.726,1.27 0.233,0 0.458,-0.004 0.68,-0.02 -0.217,0.415 -0.372,0.883 -0.372,1.367 0,0.82 0.44,1.482 0.997,2.025 -0.42,0 -0.827,0.012 -1.271,0.012 -1.393,0 -2.675,0.305 -3.76,0.811 v 1.709 c 0.963,-1.11 2.685,-1.857 4.535,-1.838 0.655,0.006 1.268,0.112 1.822,0.292 1.527,1.062 2.622,1.661 2.932,2.872 0.058,0.245 0.09,0.498 0.09,0.754 0,0.109 -0.004,0.216 -0.012,0.322 h 1.849 c 0.03,-0.205 0.046,-0.414 0.046,-0.619 0,-2.122 -0.626,-3.394 -2.562,-4.763 z M 4.785,15.947 C 2.898,15.89 1.103,13.835 0.778,11.357 0.453,8.878 1.718,6.98 3.605,7.037 c 1.887,0.057 3.683,2.046 4.009,4.525 0.324,2.477 -0.941,4.442 -2.829,4.385 z"
   id="path9"
   style="fill:#ffffff" />
	</g>
	<polygon
   points="16.981,9.33 16.981,6.164 15.358,6.164 15.358,9.33 12.137,9.33 12.137,10.971 15.358,10.971 15.358,14.195 16.981,14.195 16.981,10.969 20.173,10.969 20.173,9.33 "
   id="polygon11"
   style="fill:#ffffff" />
</g>
</svg>