<?xml version="1.0" encoding="UTF-8" standalone="no"?>
<!-- Created with Inkscape (http://www.inkscape.org/) -->

<svg
   xmlns:dc="http://purl.org/dc/elements/1.1/"
   xmlns:cc="http://creativecommons.org/ns#"
   xmlns:rdf="http://www.w3.org/1999/02/22-rdf-syntax-ns#"
   xmlns:svg="http://www.w3.org/2000/svg"
   xmlns="http://www.w3.org/2000/svg"
   version="1.1"
   width="25"
   height="25"
   viewBox="0 0 25 25"
   id="Layer_1"
   xml:space="preserve"><metadata
   id="metadata9"><rdf:RDF><cc:Work
       rdf:about=""><dc:format>image/svg+xml</dc:format><dc:type
         rdf:resource="http://purl.org/dc/dcmitype/StillImage" /><dc:title></dc:title></cc:Work></rdf:RDF></metadata><defs
   id="defs7" />
<path
   d="M 17.444,8.653 C 17.434,8.648 17.423,8.636 17.413,8.626 16.797,8.077 16.072,7.814 15.239,7.845 L 15.214,7.789 C 15.219,7.784 15.224,7.784 15.23,7.784 15.986,7.619 16.432,7.45 16.566,7.265 16.613,7.116 16.556,7.034 16.391,7.014 16.011,7.06 15.662,7.137 15.348,7.255 15.744,7.014 15.898,6.844 15.81,6.756 15.419,6.766 14.998,6.957 14.556,7.332 14.72,7.064 14.783,6.92 14.742,6.894 14.531,7.033 14.346,7.182 14.187,7.341 13.852,7.696 13.585,8.025 13.379,8.323 l -0.011,0.025 c -0.529,0.817 -0.898,1.639 -1.12,2.478 l -0.082,0.062 -0.015,0.015 C 11.832,10.523 11.452,10.204 10.995,9.946 10.455,9.613 9.822,9.294 9.093,8.986 8.296,8.596 7.489,8.272 6.672,8.02 6.667,8.889 7.114,9.582 8.003,10.086 v 0.015 C 7.69,10.095 7.386,10.142 7.093,10.23 7.15,11.037 7.751,11.592 8.892,11.9 L 8.887,11.915 C 8.441,11.89 8.07,12.039 7.783,12.347 c 0.375,0.699 1.038,1.033 1.999,1.008 -0.19,0.092 -0.339,0.193 -0.437,0.309 -0.175,0.174 -0.231,0.381 -0.175,0.615 0.205,0.355 0.575,0.52 1.12,0.494 l 0,0 0.031,0.036 c -0.006,0.005 -0.011,0.011 -0.016,0.015 -0.94,0.926 -2.076,1.342 -3.408,1.255 L 6.877,16.09 C 6.065,16.084 5.196,15.715 4.256,14.975 c 0.945,1.294 2.199,2.229 3.752,2.816 1.777,0.561 3.557,0.601 5.329,0.123 h 0.03 C 15.09,17.44 16.549,16.469 17.752,15 c 0.555,-0.771 0.904,-1.506 1.043,-2.21 0.899,0.031 1.547,-0.216 1.948,-0.74 l -0.011,-0.016 c -0.298,0.102 -0.884,0.072 -1.752,-0.098 v -0.093 c 0,-0.004 0,-0.004 0.005,0 0.95,-0.103 1.511,-0.395 1.69,-0.879 -0.663,0.247 -1.315,0.251 -1.963,0.021 -0.116,-0.853 -0.537,-1.629 -1.268,-2.332 z"
   id="path3"
   style="fill:#ffffff" />
</svg>